<svg xmlns="http://www.w3.org/2000/svg" viewBox="0 0 840 560" font-family="system-ui,-apple-system,Segoe UI,sans-serif">
<rect x="0" y="0" width="840" height="560" fill="#fcfcfb" stroke="rgba(11,11,11,0.10)"/>
<text x="78.0" y="34.0" font-size="19" fill="#0b0b0b" text-anchor="start" font-weight="600" >Roofline — this NPU (sim_default)</text>
<text x="78.0" y="56.0" font-size="13" fill="#52514e" text-anchor="start" font-weight="400" >16&#215;16 INT8 @100 MHz, 256-bit AXI · Peak 51.2 GOPS · BW 3.2 GB/s · Ridge = 16 ops/byte</text>
<line x1="78.0" y1="86" x2="78.0" y2="468" stroke="#e1e0d9"/>
<text x="78.0" y="488.0" font-size="12" fill="#898781" text-anchor="middle" font-weight="400" >0.5</text>
<line x1="158.9" y1="86" x2="158.9" y2="468" stroke="#e1e0d9"/>
<text x="158.9" y="488.0" font-size="12" fill="#898781" text-anchor="middle" font-weight="400" >1</text>
<line x1="239.8" y1="86" x2="239.8" y2="468" stroke="#e1e0d9"/>
<text x="239.8" y="488.0" font-size="12" fill="#898781" text-anchor="middle" font-weight="400" >2</text>
<line x1="320.7" y1="86" x2="320.7" y2="468" stroke="#e1e0d9"/>
<text x="320.7" y="488.0" font-size="12" fill="#898781" text-anchor="middle" font-weight="400" >4</text>
<line x1="401.6" y1="86" x2="401.6" y2="468" stroke="#e1e0d9"/>
<text x="401.6" y="488.0" font-size="12" fill="#898781" text-anchor="middle" font-weight="400" >8</text>
<line x1="482.4" y1="86" x2="482.4" y2="468" stroke="#e1e0d9"/>
<text x="482.4" y="488.0" font-size="12" fill="#898781" text-anchor="middle" font-weight="400" >16</text>
<line x1="563.3" y1="86" x2="563.3" y2="468" stroke="#e1e0d9"/>
<text x="563.3" y="488.0" font-size="12" fill="#898781" text-anchor="middle" font-weight="400" >32</text>
<line x1="644.2" y1="86" x2="644.2" y2="468" stroke="#e1e0d9"/>
<text x="644.2" y="488.0" font-size="12" fill="#898781" text-anchor="middle" font-weight="400" >64</text>
<line x1="725.1" y1="86" x2="725.1" y2="468" stroke="#e1e0d9"/>
<text x="725.1" y="488.0" font-size="12" fill="#898781" text-anchor="middle" font-weight="400" >128</text>
<line x1="806.0" y1="86" x2="806.0" y2="468" stroke="#e1e0d9"/>
<text x="806.0" y="488.0" font-size="12" fill="#898781" text-anchor="middle" font-weight="400" >256</text>
<line x1="78" y1="468.0" x2="806" y2="468.0" stroke="#e1e0d9"/>
<text x="68.0" y="472.0" font-size="12" fill="#898781" text-anchor="end" font-weight="400" >1</text>
<line x1="78" y1="413.4" x2="806" y2="413.4" stroke="#e1e0d9"/>
<text x="68.0" y="417.4" font-size="12" fill="#898781" text-anchor="end" font-weight="400" >2</text>
<line x1="78" y1="341.3" x2="806" y2="341.3" stroke="#e1e0d9"/>
<text x="68.0" y="345.3" font-size="12" fill="#898781" text-anchor="end" font-weight="400" >5</text>
<line x1="78" y1="286.7" x2="806" y2="286.7" stroke="#e1e0d9"/>
<text x="68.0" y="290.7" font-size="12" fill="#898781" text-anchor="end" font-weight="400" >10</text>
<line x1="78" y1="232.1" x2="806" y2="232.1" stroke="#e1e0d9"/>
<text x="68.0" y="236.1" font-size="12" fill="#898781" text-anchor="end" font-weight="400" >20</text>
<line x1="78" y1="160.0" x2="806" y2="160.0" stroke="#e1e0d9"/>
<text x="68.0" y="164.0" font-size="12" fill="#898781" text-anchor="end" font-weight="400" >50</text>
<line x1="78" y1="105.4" x2="806" y2="105.4" stroke="#e1e0d9"/>
<text x="68.0" y="109.4" font-size="12" fill="#898781" text-anchor="end" font-weight="400" >100</text>
<line x1="78" y1="468" x2="806" y2="468" stroke="#c3c2b7" stroke-width="1.5"/>
<line x1="78" y1="86" x2="78" y2="468" stroke="#c3c2b7" stroke-width="1.5"/>
<text x="442.0" y="526.0" font-size="13" fill="#52514e" text-anchor="middle" font-weight="400" >Operational Intensity  (ops / byte, log)</text>
<text x="22" y="277.0" font-size="13" fill="#52514e" text-anchor="middle" transform="rotate(-90 22 277.0)">Performance  (GOPS, log)</text>
<rect x="482.4" y="86" width="242.7" height="382" fill="#898781" opacity="0.06"/>
<text x="603.8" y="120.0" font-size="11" fill="#898781" text-anchor="middle" font-weight="400" >sim: compute-bound</text>
<text x="603.8" y="135.0" font-size="11" fill="#898781" text-anchor="middle" font-weight="400" >PYNQ: still memory-bound</text>
<polyline points="265.8,468.0 725.1,158.1" fill="none" stroke="#898781" stroke-width="1.8" stroke-dasharray="7 4"/>
<text x="502.5" y="301.3" font-size="11.5" fill="#898781" text-anchor="start" font-weight="400" font-style="italic">PYNQ overlay · BW 0.4 GB/s</text>
<polyline points="78.0,431.0 482.4,158.1 806.0,158.1" fill="none" stroke="#0b0b0b" stroke-width="2.6" stroke-linejoin="round"/>
<text x="743.6" y="149.1" font-size="12" fill="#52514e" text-anchor="middle" font-weight="400" >Peak Compute 51.2</text>
<line x1="482.4" y1="158.1" x2="482.4" y2="468" stroke="#898781" stroke-width="1.3" stroke-dasharray="5 4"/>
<text x="475.4" y="460.0" font-size="11.5" fill="#52514e" text-anchor="end" font-weight="400" font-style="italic">Ridge = 16 (sim)</text>
<line x1="725.1" y1="158.1" x2="725.1" y2="468" stroke="#898781" stroke-width="1.3" stroke-dasharray="2 4"/>
<text x="718.1" y="460.0" font-size="11.5" fill="#52514e" text-anchor="end" font-weight="400" font-style="italic">Ridge = 128 (PYNQ)</text>
<text x="261.1" y="442.0" font-size="12" fill="#898781" text-anchor="middle" font-weight="400" >memory-bound</text>
<line x1="320.7" y1="267.3" x2="354.2" y2="244.6" stroke="#eb6834" stroke-width="1.4" stroke-dasharray="3 3" opacity="0.8"/>
<circle cx="354.2" cy="244.6" r="6" fill="#fcfcfb" stroke="#eb6834" stroke-width="2.2"/>
<circle cx="320.7" cy="267.3" r="6.5" fill="#2a78d6" stroke="#fcfcfb" stroke-width="2"/>
<text x="308.7" y="255.3" font-size="12.5" fill="#0b0b0b" text-anchor="end" font-weight="600" >16&#179;</text>
<line x1="482.4" y1="158.1" x2="516.0" y2="158.1" stroke="#eb6834" stroke-width="1.4" stroke-dasharray="3 3" opacity="0.8"/>
<circle cx="516.0" cy="158.1" r="6" fill="#fcfcfb" stroke="#eb6834" stroke-width="2.2"/>
<circle cx="482.4" cy="158.1" r="6.5" fill="#2a78d6" stroke="#fcfcfb" stroke-width="2"/>
<text x="492.4" y="182.1" font-size="12.5" fill="#0b0b0b" text-anchor="start" font-weight="600" >64&#179;</text>
<line x1="644.2" y1="158.1" x2="677.8" y2="158.1" stroke="#eb6834" stroke-width="1.4" stroke-dasharray="3 3" opacity="0.8"/>
<circle cx="677.8" cy="158.1" r="6" fill="#fcfcfb" stroke="#eb6834" stroke-width="2.2"/>
<circle cx="644.2" cy="158.1" r="6.5" fill="#2a78d6" stroke="#fcfcfb" stroke-width="2"/>
<text x="654.2" y="182.1" font-size="12.5" fill="#0b0b0b" text-anchor="start" font-weight="600" >256&#179;</text>
<line x1="158.7" y1="376.5" x2="239.5" y2="322.0" stroke="#eb6834" stroke-width="1.4" stroke-dasharray="3 3" opacity="0.8"/>
<circle cx="239.5" cy="322.0" r="6" fill="#fcfcfb" stroke="#eb6834" stroke-width="2.2"/>
<circle cx="158.7" cy="376.5" r="6.5" fill="#2a78d6" stroke="#fcfcfb" stroke-width="2"/>
<text x="170.7" y="366.5" font-size="12.5" fill="#0b0b0b" text-anchor="start" font-weight="600" >1&#215;2048&#178;</text>
<circle cx="92" cy="102" r="6.5" fill="#2a78d6" stroke="#fcfcfb" stroke-width="2"/>
<text x="106.0" y="106.0" font-size="12.5" fill="#52514e" text-anchor="start" font-weight="400" >16-bit slot (current)</text>
<circle cx="92" cy="124" r="6" fill="#fcfcfb" stroke="#eb6834" stroke-width="2.2"/>
<text x="106.0" y="128.0" font-size="12.5" fill="#52514e" text-anchor="start" font-weight="400" >INT8 1-byte packed → OI rises</text>
</svg>